%TF.GenerationSoftware,KiCad,Pcbnew,7.0.8*%
%TF.CreationDate,2024-10-24T11:53:26+09:00*%
%TF.ProjectId,cool337,636f6f6c-3333-4372-9e6b-696361645f70,rev?*%
%TF.SameCoordinates,Original*%
%TF.FileFunction,Soldermask,Bot*%
%TF.FilePolarity,Negative*%
%FSLAX46Y46*%
G04 Gerber Fmt 4.6, Leading zero omitted, Abs format (unit mm)*
G04 Created by KiCad (PCBNEW 7.0.8) date 2024-10-24 11:53:26*
%MOMM*%
%LPD*%
G01*
G04 APERTURE LIST*
%ADD10R,1.397000X1.397000*%
%ADD11R,1.300000X0.950000*%
%ADD12C,1.397000*%
%ADD13C,1.900000*%
%ADD14C,3.000000*%
%ADD15C,4.100000*%
%ADD16R,2.550000X2.500000*%
%ADD17C,2.850000*%
%ADD18C,10.000000*%
%ADD19C,2.000000*%
%ADD20O,1.000000X1.300000*%
%ADD21C,1.524000*%
%ADD22R,1.524000X1.524000*%
G04 APERTURE END LIST*
D10*
%TO.C,D6*%
X95910000Y-8330000D03*
D11*
X97945000Y-8330000D03*
X101495000Y-8330000D03*
D12*
X103530000Y-8330000D03*
%TD*%
D13*
%TO.C,SW35*%
X92551250Y-57150000D03*
D14*
X93821250Y-54610000D03*
D15*
X97631250Y-57150000D03*
D14*
X100171250Y-52070000D03*
D13*
X102711250Y-57150000D03*
D16*
X90546250Y-54610000D03*
X103473250Y-52070000D03*
%TD*%
D13*
%TO.C,SW22*%
X190182500Y-19050000D03*
D14*
X191452500Y-16510000D03*
D15*
X195262500Y-19050000D03*
D14*
X197802500Y-13970000D03*
D13*
X200342500Y-19050000D03*
D16*
X188177500Y-16510000D03*
X201104500Y-13970000D03*
%TD*%
D10*
%TO.C,D20*%
X157755000Y-27290000D03*
D11*
X159790000Y-27290000D03*
X163340000Y-27290000D03*
D12*
X165375000Y-27290000D03*
%TD*%
D13*
%TO.C,SW13*%
X18732500Y-19050000D03*
D14*
X20002500Y-16510000D03*
D15*
X23812500Y-19050000D03*
D14*
X26352500Y-13970000D03*
D13*
X28892500Y-19050000D03*
D16*
X16727500Y-16510000D03*
X29654500Y-13970000D03*
%TD*%
D13*
%TO.C,SW3*%
X33020000Y0D03*
D14*
X34290000Y2540000D03*
D15*
X38100000Y0D03*
D14*
X40640000Y5080000D03*
D13*
X43180000Y0D03*
D16*
X31015000Y2540000D03*
X43942000Y5080000D03*
%TD*%
D13*
%TO.C,SW1*%
X-5080000Y0D03*
D14*
X-3810000Y2540000D03*
D15*
X0Y0D03*
D14*
X2540000Y5080000D03*
D13*
X5080000Y0D03*
D16*
X-7085000Y2540000D03*
X5842000Y5080000D03*
%TD*%
D13*
%TO.C,SW19*%
X133032500Y-19050000D03*
D14*
X134302500Y-16510000D03*
D15*
X138112500Y-19050000D03*
D14*
X140652500Y-13970000D03*
D13*
X143192500Y-19050000D03*
D16*
X131027500Y-16510000D03*
X143954500Y-13970000D03*
%TD*%
D10*
%TO.C,D7*%
X114920000Y-8080000D03*
D11*
X116955000Y-8080000D03*
X120505000Y-8080000D03*
D12*
X122540000Y-8080000D03*
%TD*%
D10*
%TO.C,D31*%
X167010000Y-46320000D03*
D11*
X169045000Y-46320000D03*
X172595000Y-46320000D03*
D12*
X174630000Y-46320000D03*
%TD*%
D17*
%TO.C,BT1*%
X69580000Y-57260000D03*
X52680000Y-57260000D03*
D18*
X61130000Y-57260000D03*
%TD*%
D13*
%TO.C,SW10*%
X166370000Y0D03*
D14*
X167640000Y2540000D03*
D15*
X171450000Y0D03*
D14*
X173990000Y5080000D03*
D13*
X176530000Y0D03*
D16*
X164365000Y2540000D03*
X177292000Y5080000D03*
%TD*%
D13*
%TO.C,SW26*%
X66357500Y-38100000D03*
D14*
X67627500Y-35560000D03*
D15*
X71437500Y-38100000D03*
D14*
X73977500Y-33020000D03*
D13*
X76517500Y-38100000D03*
D16*
X64352500Y-35560000D03*
X77279500Y-33020000D03*
%TD*%
D13*
%TO.C,SW36*%
X163988750Y-57150000D03*
D14*
X165258750Y-54610000D03*
D15*
X169068750Y-57150000D03*
D14*
X171608750Y-52070000D03*
D13*
X174148750Y-57150000D03*
D16*
X161983750Y-54610000D03*
X174910750Y-52070000D03*
%TD*%
D10*
%TO.C,D8*%
X133930000Y-8200000D03*
D11*
X135965000Y-8200000D03*
X139515000Y-8200000D03*
D12*
X141550000Y-8200000D03*
%TD*%
D10*
%TO.C,D22*%
X196005000Y-27410000D03*
D11*
X198040000Y-27410000D03*
X201590000Y-27410000D03*
D12*
X203625000Y-27410000D03*
%TD*%
D10*
%TO.C,D34*%
X26825000Y-65170000D03*
D11*
X28860000Y-65170000D03*
X32410000Y-65170000D03*
D12*
X34445000Y-65170000D03*
%TD*%
D10*
%TO.C,D29*%
X129000000Y-46420000D03*
D11*
X131035000Y-46420000D03*
X134585000Y-46420000D03*
D12*
X136620000Y-46420000D03*
%TD*%
D13*
%TO.C,SW11*%
X187801250Y0D03*
D14*
X189071250Y2540000D03*
D15*
X192881250Y0D03*
D14*
X195421250Y5080000D03*
D13*
X197961250Y0D03*
D16*
X185796250Y2540000D03*
X198723250Y5080000D03*
%TD*%
D13*
%TO.C,SW29*%
X123507500Y-38100000D03*
D14*
X124777500Y-35560000D03*
D15*
X128587500Y-38100000D03*
D14*
X131127500Y-33020000D03*
D13*
X133667500Y-38100000D03*
D16*
X121502500Y-35560000D03*
X134429500Y-33020000D03*
%TD*%
D10*
%TO.C,D23*%
X7850000Y-46520000D03*
D11*
X9885000Y-46520000D03*
X13435000Y-46520000D03*
D12*
X15470000Y-46520000D03*
%TD*%
D13*
%TO.C,SW32*%
X185420000Y-38100000D03*
D14*
X186690000Y-35560000D03*
D15*
X190500000Y-38100000D03*
D14*
X193040000Y-33020000D03*
D13*
X195580000Y-38100000D03*
D16*
X183415000Y-35560000D03*
X196342000Y-33020000D03*
%TD*%
D19*
%TO.C,SW39*%
X20220000Y-29950000D03*
X20220000Y-36450000D03*
%TD*%
D13*
%TO.C,SW17*%
X94932500Y-19050000D03*
D14*
X96202500Y-16510000D03*
D15*
X100012500Y-19050000D03*
D14*
X102552500Y-13970000D03*
D13*
X105092500Y-19050000D03*
D16*
X92927500Y-16510000D03*
X105854500Y-13970000D03*
%TD*%
D10*
%TO.C,D24*%
X37810000Y-46460000D03*
D11*
X39845000Y-46460000D03*
X43395000Y-46460000D03*
D12*
X45430000Y-46460000D03*
%TD*%
D13*
%TO.C,SW15*%
X56832500Y-19050000D03*
D14*
X58102500Y-16510000D03*
D15*
X61912500Y-19050000D03*
D14*
X64452500Y-13970000D03*
D13*
X66992500Y-19050000D03*
D16*
X54827500Y-16510000D03*
X67754500Y-13970000D03*
%TD*%
D13*
%TO.C,SW31*%
X161607500Y-38100000D03*
D14*
X162877500Y-35560000D03*
D15*
X166687500Y-38100000D03*
D14*
X169227500Y-33020000D03*
D13*
X171767500Y-38100000D03*
D16*
X159602500Y-35560000D03*
X172529500Y-33020000D03*
%TD*%
D10*
%TO.C,D32*%
X191275000Y-46390000D03*
D11*
X193310000Y-46390000D03*
X196860000Y-46390000D03*
D12*
X198895000Y-46390000D03*
%TD*%
D13*
%TO.C,SW12*%
X-2698750Y-19050000D03*
D14*
X-1428750Y-16510000D03*
D15*
X2381250Y-19050000D03*
D14*
X4921250Y-13970000D03*
D13*
X7461250Y-19050000D03*
D16*
X-4703750Y-16510000D03*
X8223250Y-13970000D03*
%TD*%
D10*
%TO.C,D26*%
X72155000Y-46340000D03*
D11*
X74190000Y-46340000D03*
X77740000Y-46340000D03*
D12*
X79775000Y-46340000D03*
%TD*%
D10*
%TO.C,D15*%
X62425000Y-27330000D03*
D11*
X64460000Y-27330000D03*
X68010000Y-27330000D03*
D12*
X70045000Y-27330000D03*
%TD*%
D13*
%TO.C,SW9*%
X147320000Y0D03*
D14*
X148590000Y2540000D03*
D15*
X152400000Y0D03*
D14*
X154940000Y5080000D03*
D13*
X157480000Y0D03*
D16*
X145315000Y2540000D03*
X158242000Y5080000D03*
%TD*%
D10*
%TO.C,D2*%
X19845000Y-8330000D03*
D11*
X21880000Y-8330000D03*
X25430000Y-8330000D03*
D12*
X27465000Y-8330000D03*
%TD*%
D13*
%TO.C,SW8*%
X128270000Y0D03*
D14*
X129540000Y2540000D03*
D15*
X133350000Y0D03*
D14*
X135890000Y5080000D03*
D13*
X138430000Y0D03*
D16*
X126265000Y2540000D03*
X139192000Y5080000D03*
%TD*%
D13*
%TO.C,SW30*%
X142557500Y-38100000D03*
D14*
X143827500Y-35560000D03*
D15*
X147637500Y-38100000D03*
D14*
X150177500Y-33020000D03*
D13*
X152717500Y-38100000D03*
D16*
X140552500Y-35560000D03*
X153479500Y-33020000D03*
%TD*%
D10*
%TO.C,D12*%
X3660000Y-29750000D03*
D11*
X5695000Y-29750000D03*
X9245000Y-29750000D03*
D12*
X11280000Y-29750000D03*
%TD*%
D13*
%TO.C,SW25*%
X47307500Y-38100000D03*
D14*
X48577500Y-35560000D03*
D15*
X52387500Y-38100000D03*
D14*
X54927500Y-33020000D03*
D13*
X57467500Y-38100000D03*
D16*
X45302500Y-35560000D03*
X58229500Y-33020000D03*
%TD*%
D13*
%TO.C,SW34*%
X21113750Y-57150000D03*
D14*
X22383750Y-54610000D03*
D15*
X26193750Y-57150000D03*
D14*
X28733750Y-52070000D03*
D13*
X31273750Y-57150000D03*
D16*
X19108750Y-54610000D03*
X32035750Y-52070000D03*
%TD*%
D10*
%TO.C,D36*%
X169740000Y-65420000D03*
D11*
X171775000Y-65420000D03*
X175325000Y-65420000D03*
D12*
X177360000Y-65420000D03*
%TD*%
D20*
%TO.C,SW38*%
X-6910000Y-41100000D03*
X-6910000Y-38600000D03*
X-6910000Y-36100000D03*
%TD*%
D10*
%TO.C,D25*%
X53150000Y-46280000D03*
D11*
X55185000Y-46280000D03*
X58735000Y-46280000D03*
D12*
X60770000Y-46280000D03*
%TD*%
D13*
%TO.C,SW23*%
X2063750Y-38100000D03*
D14*
X3333750Y-35560000D03*
D15*
X7143750Y-38100000D03*
D14*
X9683750Y-33020000D03*
D13*
X12223750Y-38100000D03*
D16*
X58750Y-35560000D03*
X12985750Y-33020000D03*
%TD*%
D10*
%TO.C,D3*%
X38800000Y-8240000D03*
D11*
X40835000Y-8240000D03*
X44385000Y-8240000D03*
D12*
X46420000Y-8240000D03*
%TD*%
D10*
%TO.C,D10*%
X172110000Y-8140000D03*
D11*
X174145000Y-8140000D03*
X177695000Y-8140000D03*
D12*
X179730000Y-8140000D03*
%TD*%
D21*
%TO.C,U1*%
X-4420000Y-11088600D03*
X-1880000Y-11088600D03*
X660000Y-11088600D03*
X3200000Y-11088600D03*
X5740000Y-11088600D03*
X8280000Y-11088600D03*
X10820000Y-11088600D03*
X13360000Y-11088600D03*
X15900000Y-11088600D03*
X18440000Y-11088600D03*
X20980000Y-11088600D03*
X23520000Y-11088600D03*
X23520000Y-26308600D03*
X20980000Y-26308600D03*
X18440000Y-26308600D03*
X15900000Y-26308600D03*
X13360000Y-26308600D03*
X10820000Y-26308600D03*
X8280000Y-26308600D03*
X5740000Y-26308600D03*
X3200000Y-26308600D03*
X660000Y-26308600D03*
X-1880000Y-26308600D03*
X-4420000Y-26308600D03*
D22*
X-6960000Y-26308600D03*
D21*
X-6960000Y-11088600D03*
%TD*%
D10*
%TO.C,D35*%
X98460000Y-65360000D03*
D11*
X100495000Y-65360000D03*
X104045000Y-65360000D03*
D12*
X106080000Y-65360000D03*
%TD*%
D13*
%TO.C,SW4*%
X52070000Y0D03*
D14*
X53340000Y2540000D03*
D15*
X57150000Y0D03*
D14*
X59690000Y5080000D03*
D13*
X62230000Y0D03*
D16*
X50065000Y2540000D03*
X62992000Y5080000D03*
%TD*%
D10*
%TO.C,D5*%
X76910000Y-8360000D03*
D11*
X78945000Y-8360000D03*
X82495000Y-8360000D03*
D12*
X84530000Y-8360000D03*
%TD*%
D10*
%TO.C,D30*%
X148120000Y-46370000D03*
D11*
X150155000Y-46370000D03*
X153705000Y-46370000D03*
D12*
X155740000Y-46370000D03*
%TD*%
D10*
%TO.C,D1*%
X920000Y-8330000D03*
D11*
X2955000Y-8330000D03*
X6505000Y-8330000D03*
D12*
X8540000Y-8330000D03*
%TD*%
D10*
%TO.C,D19*%
X138615000Y-27260000D03*
D11*
X140650000Y-27260000D03*
X144200000Y-27260000D03*
D12*
X146235000Y-27260000D03*
%TD*%
D10*
%TO.C,D18*%
X119835000Y-27350000D03*
D11*
X121870000Y-27350000D03*
X125420000Y-27350000D03*
D12*
X127455000Y-27350000D03*
%TD*%
D10*
%TO.C,D14*%
X43635000Y-27340000D03*
D11*
X45670000Y-27340000D03*
X49220000Y-27340000D03*
D12*
X51255000Y-27340000D03*
%TD*%
D13*
%TO.C,SW2*%
X13970000Y0D03*
D14*
X15240000Y2540000D03*
D15*
X19050000Y0D03*
D14*
X21590000Y5080000D03*
D13*
X24130000Y0D03*
D16*
X11965000Y2540000D03*
X24892000Y5080000D03*
%TD*%
D13*
%TO.C,SW21*%
X171132500Y-19050000D03*
D14*
X172402500Y-16510000D03*
D15*
X176212500Y-19050000D03*
D14*
X178752500Y-13970000D03*
D13*
X181292500Y-19050000D03*
D16*
X169127500Y-16510000D03*
X182054500Y-13970000D03*
%TD*%
D10*
%TO.C,D13*%
X24880000Y-29880000D03*
D11*
X26915000Y-29880000D03*
X30465000Y-29880000D03*
D12*
X32500000Y-29880000D03*
%TD*%
D10*
%TO.C,D37*%
X193555000Y-65370000D03*
D11*
X195590000Y-65370000D03*
X199140000Y-65370000D03*
D12*
X201175000Y-65370000D03*
%TD*%
D10*
%TO.C,D9*%
X149420000Y-8350000D03*
D11*
X151455000Y-8350000D03*
X155005000Y-8350000D03*
D12*
X157040000Y-8350000D03*
%TD*%
D13*
%TO.C,SW37*%
X187801250Y-57150000D03*
D14*
X189071250Y-54610000D03*
D15*
X192881250Y-57150000D03*
D14*
X195421250Y-52070000D03*
D13*
X197961250Y-57150000D03*
D16*
X185796250Y-54610000D03*
X198723250Y-52070000D03*
%TD*%
D10*
%TO.C,D4*%
X58040000Y-8310000D03*
D11*
X60075000Y-8310000D03*
X63625000Y-8310000D03*
D12*
X65660000Y-8310000D03*
%TD*%
D13*
%TO.C,SW6*%
X90170000Y0D03*
D14*
X91440000Y2540000D03*
D15*
X95250000Y0D03*
D14*
X97790000Y5080000D03*
D13*
X100330000Y0D03*
D16*
X88165000Y2540000D03*
X101092000Y5080000D03*
%TD*%
D10*
%TO.C,D33*%
X2925000Y-65430000D03*
D11*
X4960000Y-65430000D03*
X8510000Y-65430000D03*
D12*
X10545000Y-65430000D03*
%TD*%
D13*
%TO.C,SW20*%
X152082500Y-19050000D03*
D14*
X153352500Y-16510000D03*
D15*
X157162500Y-19050000D03*
D14*
X159702500Y-13970000D03*
D13*
X162242500Y-19050000D03*
D16*
X150077500Y-16510000D03*
X163004500Y-13970000D03*
%TD*%
D13*
%TO.C,SW14*%
X37782500Y-19050000D03*
D14*
X39052500Y-16510000D03*
D15*
X42862500Y-19050000D03*
D14*
X45402500Y-13970000D03*
D13*
X47942500Y-19050000D03*
D16*
X35777500Y-16510000D03*
X48704500Y-13970000D03*
%TD*%
D13*
%TO.C,SW5*%
X71120000Y0D03*
D14*
X72390000Y2540000D03*
D15*
X76200000Y0D03*
D14*
X78740000Y5080000D03*
D13*
X81280000Y0D03*
D16*
X69115000Y2540000D03*
X82042000Y5080000D03*
%TD*%
D13*
%TO.C,SW16*%
X75882500Y-19050000D03*
D14*
X77152500Y-16510000D03*
D15*
X80962500Y-19050000D03*
D14*
X83502500Y-13970000D03*
D13*
X86042500Y-19050000D03*
D16*
X73877500Y-16510000D03*
X86804500Y-13970000D03*
%TD*%
D13*
%TO.C,SW18*%
X113982500Y-19050000D03*
D14*
X115252500Y-16510000D03*
D15*
X119062500Y-19050000D03*
D14*
X121602500Y-13970000D03*
D13*
X124142500Y-19050000D03*
D16*
X111977500Y-16510000D03*
X124904500Y-13970000D03*
%TD*%
D10*
%TO.C,D11*%
X193420000Y-8340000D03*
D11*
X195455000Y-8340000D03*
X199005000Y-8340000D03*
D12*
X201040000Y-8340000D03*
%TD*%
D13*
%TO.C,SW27*%
X85407500Y-38100000D03*
D14*
X86677500Y-35560000D03*
D15*
X90487500Y-38100000D03*
D14*
X93027500Y-33020000D03*
D13*
X95567500Y-38100000D03*
D16*
X83402500Y-35560000D03*
X96329500Y-33020000D03*
%TD*%
D10*
%TO.C,D17*%
X100705000Y-27320000D03*
D11*
X102740000Y-27320000D03*
X106290000Y-27320000D03*
D12*
X108325000Y-27320000D03*
%TD*%
D10*
%TO.C,D27*%
X91155000Y-46470000D03*
D11*
X93190000Y-46470000D03*
X96740000Y-46470000D03*
D12*
X98775000Y-46470000D03*
%TD*%
D13*
%TO.C,SW28*%
X104457500Y-38100000D03*
D14*
X105727500Y-35560000D03*
D15*
X109537500Y-38100000D03*
D14*
X112077500Y-33020000D03*
D13*
X114617500Y-38100000D03*
D16*
X102452500Y-35560000D03*
X115379500Y-33020000D03*
%TD*%
D13*
%TO.C,SW33*%
X-2698750Y-57150000D03*
D14*
X-1428750Y-54610000D03*
D15*
X2381250Y-57150000D03*
D14*
X4921250Y-52070000D03*
D13*
X7461250Y-57150000D03*
D16*
X-4703750Y-54610000D03*
X8223250Y-52070000D03*
%TD*%
D10*
%TO.C,D16*%
X81615000Y-27190000D03*
D11*
X83650000Y-27190000D03*
X87200000Y-27190000D03*
D12*
X89235000Y-27190000D03*
%TD*%
D13*
%TO.C,SW7*%
X109220000Y0D03*
D14*
X110490000Y2540000D03*
D15*
X114300000Y0D03*
D14*
X116840000Y5080000D03*
D13*
X119380000Y0D03*
D16*
X107215000Y2540000D03*
X120142000Y5080000D03*
%TD*%
D10*
%TO.C,D21*%
X177195000Y-27280000D03*
D11*
X179230000Y-27280000D03*
X182780000Y-27280000D03*
D12*
X184815000Y-27280000D03*
%TD*%
D10*
%TO.C,D28*%
X110185000Y-46360000D03*
D11*
X112220000Y-46360000D03*
X115770000Y-46360000D03*
D12*
X117805000Y-46360000D03*
%TD*%
D13*
%TO.C,SW24*%
X28257500Y-38100000D03*
D14*
X29527500Y-35560000D03*
D15*
X33337500Y-38100000D03*
D14*
X35877500Y-33020000D03*
D13*
X38417500Y-38100000D03*
D16*
X26252500Y-35560000D03*
X39179500Y-33020000D03*
%TD*%
M02*
