M48
; DRILL file {KiCad 7.0.8} date 2024 October 24, Thursday 11:52:28
; FORMAT={-:-/ absolute / metric / decimal}
; #@! TF.CreationDate,2024-10-24T11:52:28+09:00
; #@! TF.GenerationSoftware,Kicad,Pcbnew,7.0.8
; #@! TF.FileFunction,Plated,1,2,PTH
FMAT,2
METRIC
; #@! TA.AperFunction,Plated,PTH,ViaDrill
T1C0.400
; #@! TA.AperFunction,Plated,PTH,ComponentDrill
T2C0.500
; #@! TA.AperFunction,Plated,PTH,ComponentDrill
T3C0.813
; #@! TA.AperFunction,Plated,PTH,ComponentDrill
T4C1.300
; #@! TA.AperFunction,Plated,PTH,ComponentDrill
T5C1.850
%
G90
G05
T1
X1.09Y-61.43
X10.63Y-23.41
X14.39Y-27.75
X16.54Y-59.68
X17.53Y-45.11
X18.967Y-22.183
X18.98Y-24.59
X19.0Y-23.52
X19.05Y-5.58
X20.21Y-27.8
X23.85Y-43.39
X26.55Y-2.3
X26.55Y-3.7
X31.015Y-2.312
X31.08Y-4.87
X50.065Y-3.64
X69.115Y-4.86
X69.74Y-40.57
X92.927Y-22.17
X107.215Y-5.61
X131.028Y-23.51
X150.077Y-24.56
X183.415Y-43.38
X188.08Y-25.39
T3
X-6.96Y-11.089
X-6.96Y-26.309
X-4.42Y-11.089
X-4.42Y-26.309
X-1.88Y-11.089
X-1.88Y-26.309
X0.66Y-11.089
X0.66Y-26.309
X0.92Y-8.33
X2.925Y-65.43
X3.2Y-11.089
X3.2Y-26.309
X3.66Y-29.75
X5.74Y-11.089
X5.74Y-26.309
X7.85Y-46.52
X8.28Y-11.089
X8.28Y-26.309
X8.54Y-8.33
X10.545Y-65.43
X10.82Y-11.089
X10.82Y-26.309
X11.28Y-29.75
X13.36Y-11.089
X13.36Y-26.309
X15.47Y-46.52
X15.9Y-11.089
X15.9Y-26.309
X18.44Y-11.089
X18.44Y-26.309
X19.845Y-8.33
X20.98Y-11.089
X20.98Y-26.309
X23.52Y-11.089
X23.52Y-26.309
X24.88Y-29.88
X26.825Y-65.17
X27.465Y-8.33
X32.5Y-29.88
X34.445Y-65.17
X37.81Y-46.46
X38.8Y-8.24
X43.635Y-27.34
X45.43Y-46.46
X46.42Y-8.24
X51.255Y-27.34
X53.15Y-46.28
X58.04Y-8.31
X60.77Y-46.28
X62.425Y-27.33
X65.66Y-8.31
X70.045Y-27.33
X72.155Y-46.34
X76.91Y-8.36
X79.775Y-46.34
X81.615Y-27.19
X84.53Y-8.36
X89.235Y-27.19
X91.155Y-46.47
X95.91Y-8.33
X98.46Y-65.36
X98.775Y-46.47
X100.705Y-27.32
X103.53Y-8.33
X106.08Y-65.36
X108.325Y-27.32
X110.185Y-46.36
X114.92Y-8.08
X117.805Y-46.36
X119.835Y-27.35
X122.54Y-8.08
X127.455Y-27.35
X129.0Y-46.42
X133.93Y-8.2
X136.62Y-46.42
X138.615Y-27.26
X141.55Y-8.2
X146.235Y-27.26
X148.12Y-46.37
X149.42Y-8.35
X155.74Y-46.37
X157.04Y-8.35
X157.755Y-27.29
X165.375Y-27.29
X167.01Y-46.32
X169.74Y-65.42
X172.11Y-8.14
X174.63Y-46.32
X177.195Y-27.28
X177.36Y-65.42
X179.73Y-8.14
X184.815Y-27.28
X191.275Y-46.39
X193.42Y-8.34
X193.555Y-65.37
X196.005Y-27.41
X198.895Y-46.39
X201.04Y-8.34
X201.175Y-65.37
X203.625Y-27.41
T4
X20.22Y-29.95
X20.22Y-36.45
T5
X52.68Y-57.26
X69.58Y-57.26
T2
G00X-6.91Y-36.25
M15
G01X-6.91Y-35.95
M16
G05
G00X-6.91Y-38.75
M15
G01X-6.91Y-38.45
M16
G05
G00X-6.91Y-41.25
M15
G01X-6.91Y-40.95
M16
G05
T0
M30
