M48
; DRILL file {KiCad 7.0.8} date 2024 November 13, Wednesday 13:09:45
; FORMAT={-:-/ absolute / metric / decimal}
; #@! TF.CreationDate,2024-11-13T13:09:45+09:00
; #@! TF.GenerationSoftware,Kicad,Pcbnew,7.0.8
; #@! TF.FileFunction,NonPlated,1,2,NPTH
FMAT,2
METRIC
; #@! TA.AperFunction,NonPlated,NPTH,ComponentDrill
T1C1.900
; #@! TA.AperFunction,NonPlated,NPTH,ComponentDrill
T2C3.000
; #@! TA.AperFunction,NonPlated,NPTH,ComponentDrill
T3C4.100
%
G90
G05
T1
X-5.08Y0.0
X-2.699Y-19.05
X-2.699Y-57.15
X2.064Y-38.1
X5.08Y0.0
X7.461Y-19.05
X7.461Y-57.15
X12.224Y-38.1
X13.97Y0.0
X18.732Y-19.05
X21.114Y-57.15
X24.13Y0.0
X28.258Y-38.1
X28.892Y-19.05
X31.274Y-57.15
X33.02Y0.0
X37.782Y-19.05
X38.417Y-38.1
X43.18Y0.0
X47.307Y-38.1
X47.942Y-19.05
X52.07Y0.0
X56.832Y-19.05
X57.467Y-38.1
X62.23Y0.0
X66.358Y-38.1
X66.992Y-19.05
X71.12Y0.0
X75.882Y-19.05
X76.517Y-38.1
X81.28Y0.0
X85.407Y-38.1
X86.042Y-19.05
X90.17Y0.0
X92.551Y-57.15
X94.932Y-19.05
X95.567Y-38.1
X100.33Y0.0
X102.711Y-57.15
X104.457Y-38.1
X105.093Y-19.05
X109.22Y0.0
X113.983Y-19.05
X114.617Y-38.1
X119.38Y0.0
X123.507Y-38.1
X124.142Y-19.05
X128.27Y0.0
X133.032Y-19.05
X133.667Y-38.1
X138.43Y0.0
X142.558Y-38.1
X143.192Y-19.05
X147.32Y0.0
X152.082Y-19.05
X152.718Y-38.1
X157.48Y0.0
X161.607Y-38.1
X162.243Y-19.05
X163.989Y-57.15
X166.37Y0.0
X171.132Y-19.05
X171.767Y-38.1
X174.149Y-57.15
X176.53Y0.0
X181.292Y-19.05
X185.42Y-38.1
X187.801Y0.0
X187.801Y-57.15
X190.183Y-19.05
X195.58Y-38.1
X197.961Y0.0
X197.961Y-57.15
X200.343Y-19.05
T2
X-3.81Y2.54
X-1.429Y-16.51
X-1.429Y-54.61
X2.54Y5.08
X3.334Y-35.56
X4.921Y-13.97
X4.921Y-52.07
X9.684Y-33.02
X15.24Y2.54
X20.002Y-16.51
X21.59Y5.08
X22.384Y-54.61
X26.352Y-13.97
X28.734Y-52.07
X29.527Y-35.56
X34.29Y2.54
X35.877Y-33.02
X39.052Y-16.51
X40.64Y5.08
X45.402Y-13.97
X48.578Y-35.56
X53.34Y2.54
X54.927Y-33.02
X58.102Y-16.51
X59.69Y5.08
X64.453Y-13.97
X67.627Y-35.56
X72.39Y2.54
X73.977Y-33.02
X77.153Y-16.51
X78.74Y5.08
X83.502Y-13.97
X86.677Y-35.56
X91.44Y2.54
X93.027Y-33.02
X93.821Y-54.61
X96.203Y-16.51
X97.79Y5.08
X100.171Y-52.07
X102.552Y-13.97
X105.727Y-35.56
X110.49Y2.54
X112.078Y-33.02
X115.252Y-16.51
X116.84Y5.08
X121.602Y-13.97
X124.777Y-35.56
X129.54Y2.54
X131.127Y-33.02
X134.302Y-16.51
X135.89Y5.08
X140.653Y-13.97
X143.827Y-35.56
X148.59Y2.54
X150.177Y-33.02
X153.352Y-16.51
X154.94Y5.08
X159.702Y-13.97
X162.877Y-35.56
X165.259Y-54.61
X167.64Y2.54
X169.227Y-33.02
X171.609Y-52.07
X172.403Y-16.51
X173.99Y5.08
X178.752Y-13.97
X186.69Y-35.56
X189.071Y2.54
X189.071Y-54.61
X191.452Y-16.51
X193.04Y-33.02
X195.421Y5.08
X195.421Y-52.07
X197.802Y-13.97
T3
X0.0Y0.0
X2.381Y-19.05
X2.381Y-57.15
X7.144Y-38.1
X19.05Y0.0
X23.812Y-19.05
X26.194Y-57.15
X33.337Y-38.1
X38.1Y0.0
X42.862Y-19.05
X52.387Y-38.1
X57.15Y0.0
X61.912Y-19.05
X71.438Y-38.1
X76.2Y0.0
X80.962Y-19.05
X90.487Y-38.1
X95.25Y0.0
X97.631Y-57.15
X100.012Y-19.05
X109.537Y-38.1
X114.3Y0.0
X119.062Y-19.05
X128.588Y-38.1
X133.35Y0.0
X138.112Y-19.05
X147.637Y-38.1
X152.4Y0.0
X157.162Y-19.05
X166.688Y-38.1
X169.069Y-57.15
X171.45Y0.0
X176.213Y-19.05
X190.5Y-38.1
X192.881Y0.0
X192.881Y-57.15
X195.262Y-19.05
T0
M30
