%TF.GenerationSoftware,KiCad,Pcbnew,7.0.8*%
%TF.CreationDate,2024-11-13T13:09:42+09:00*%
%TF.ProjectId,cool337,636f6f6c-3333-4372-9e6b-696361645f70,rev?*%
%TF.SameCoordinates,Original*%
%TF.FileFunction,Copper,L1,Top*%
%TF.FilePolarity,Positive*%
%FSLAX46Y46*%
G04 Gerber Fmt 4.6, Leading zero omitted, Abs format (unit mm)*
G04 Created by KiCad (PCBNEW 7.0.8) date 2024-11-13 13:09:42*
%MOMM*%
%LPD*%
G01*
G04 APERTURE LIST*
%TA.AperFunction,ComponentPad*%
%ADD10R,1.397000X1.397000*%
%TD*%
%TA.AperFunction,SMDPad,CuDef*%
%ADD11R,1.300000X0.950000*%
%TD*%
%TA.AperFunction,ComponentPad*%
%ADD12C,1.397000*%
%TD*%
%TA.AperFunction,ComponentPad*%
%ADD13C,2.850000*%
%TD*%
%TA.AperFunction,ComponentPad*%
%ADD14C,2.000000*%
%TD*%
%TA.AperFunction,ComponentPad*%
%ADD15O,1.000000X1.300000*%
%TD*%
%TA.AperFunction,ComponentPad*%
%ADD16C,1.524000*%
%TD*%
%TA.AperFunction,ComponentPad*%
%ADD17R,1.524000X1.524000*%
%TD*%
%TA.AperFunction,ViaPad*%
%ADD18C,0.800000*%
%TD*%
%TA.AperFunction,Conductor*%
%ADD19C,0.500000*%
%TD*%
%TA.AperFunction,Conductor*%
%ADD20C,0.250000*%
%TD*%
G04 APERTURE END LIST*
D10*
%TO.P,D6,1,K*%
%TO.N,row0*%
X95910000Y-8330000D03*
D11*
X97945000Y-8330000D03*
%TO.P,D6,2,A*%
%TO.N,Net-(D6-A)*%
X101495000Y-8330000D03*
D12*
X103530000Y-8330000D03*
%TD*%
D10*
%TO.P,D20,1,K*%
%TO.N,row1*%
X157755000Y-27290000D03*
D11*
X159790000Y-27290000D03*
%TO.P,D20,2,A*%
%TO.N,Net-(D20-A)*%
X163340000Y-27290000D03*
D12*
X165375000Y-27290000D03*
%TD*%
D10*
%TO.P,D7,1,K*%
%TO.N,row0*%
X114920000Y-8080000D03*
D11*
X116955000Y-8080000D03*
%TO.P,D7,2,A*%
%TO.N,Net-(D7-A)*%
X120505000Y-8080000D03*
D12*
X122540000Y-8080000D03*
%TD*%
D10*
%TO.P,D31,1,K*%
%TO.N,row2*%
X167010000Y-46320000D03*
D11*
X169045000Y-46320000D03*
%TO.P,D31,2,A*%
%TO.N,Net-(D31-A)*%
X172595000Y-46320000D03*
D12*
X174630000Y-46320000D03*
%TD*%
D13*
%TO.P,BT1,1,+*%
%TO.N,BAT+*%
X69580000Y-57260000D03*
X52680000Y-57260000D03*
%TD*%
D10*
%TO.P,D8,1,K*%
%TO.N,row0*%
X133930000Y-8200000D03*
D11*
X135965000Y-8200000D03*
%TO.P,D8,2,A*%
%TO.N,Net-(D8-A)*%
X139515000Y-8200000D03*
D12*
X141550000Y-8200000D03*
%TD*%
D10*
%TO.P,D22,1,K*%
%TO.N,row1*%
X196005000Y-27410000D03*
D11*
X198040000Y-27410000D03*
%TO.P,D22,2,A*%
%TO.N,Net-(D22-A)*%
X201590000Y-27410000D03*
D12*
X203625000Y-27410000D03*
%TD*%
D10*
%TO.P,D34,1,K*%
%TO.N,row3*%
X26825000Y-65170000D03*
D11*
X28860000Y-65170000D03*
%TO.P,D34,2,A*%
%TO.N,Net-(D34-A)*%
X32410000Y-65170000D03*
D12*
X34445000Y-65170000D03*
%TD*%
D10*
%TO.P,D29,1,K*%
%TO.N,row2*%
X129000000Y-46420000D03*
D11*
X131035000Y-46420000D03*
%TO.P,D29,2,A*%
%TO.N,Net-(D29-A)*%
X134585000Y-46420000D03*
D12*
X136620000Y-46420000D03*
%TD*%
D10*
%TO.P,D23,1,K*%
%TO.N,row2*%
X7850000Y-46520000D03*
D11*
X9885000Y-46520000D03*
%TO.P,D23,2,A*%
%TO.N,Net-(D23-A)*%
X13435000Y-46520000D03*
D12*
X15470000Y-46520000D03*
%TD*%
D14*
%TO.P,SW39,1,1*%
%TO.N,Net-(U1-BOOT(RST))*%
X20220000Y-29950000D03*
%TO.P,SW39,2,2*%
%TO.N,GND*%
X20220000Y-36450000D03*
%TD*%
D10*
%TO.P,D24,1,K*%
%TO.N,row2*%
X37810000Y-46460000D03*
D11*
X39845000Y-46460000D03*
%TO.P,D24,2,A*%
%TO.N,Net-(D24-A)*%
X43395000Y-46460000D03*
D12*
X45430000Y-46460000D03*
%TD*%
D10*
%TO.P,D32,1,K*%
%TO.N,row2*%
X191275000Y-46390000D03*
D11*
X193310000Y-46390000D03*
%TO.P,D32,2,A*%
%TO.N,Net-(D32-A)*%
X196860000Y-46390000D03*
D12*
X198895000Y-46390000D03*
%TD*%
D10*
%TO.P,D26,1,K*%
%TO.N,row2*%
X72155000Y-46340000D03*
D11*
X74190000Y-46340000D03*
%TO.P,D26,2,A*%
%TO.N,Net-(D26-A)*%
X77740000Y-46340000D03*
D12*
X79775000Y-46340000D03*
%TD*%
D10*
%TO.P,D15,1,K*%
%TO.N,row1*%
X62425000Y-27330000D03*
D11*
X64460000Y-27330000D03*
%TO.P,D15,2,A*%
%TO.N,Net-(D15-A)*%
X68010000Y-27330000D03*
D12*
X70045000Y-27330000D03*
%TD*%
D10*
%TO.P,D2,1,K*%
%TO.N,row0*%
X19845000Y-8330000D03*
D11*
X21880000Y-8330000D03*
%TO.P,D2,2,A*%
%TO.N,Net-(D2-A)*%
X25430000Y-8330000D03*
D12*
X27465000Y-8330000D03*
%TD*%
D10*
%TO.P,D12,1,K*%
%TO.N,row1*%
X3660000Y-29750000D03*
D11*
X5695000Y-29750000D03*
%TO.P,D12,2,A*%
%TO.N,Net-(D12-A)*%
X9245000Y-29750000D03*
D12*
X11280000Y-29750000D03*
%TD*%
D10*
%TO.P,D36,1,K*%
%TO.N,row3*%
X169740000Y-65420000D03*
D11*
X171775000Y-65420000D03*
%TO.P,D36,2,A*%
%TO.N,Net-(D36-A)*%
X175325000Y-65420000D03*
D12*
X177360000Y-65420000D03*
%TD*%
D15*
%TO.P,SW38,1,1*%
%TO.N,Net-(U1-BAT)*%
X-6910000Y-41100000D03*
%TO.P,SW38,2,2*%
%TO.N,BAT+*%
X-6910000Y-38600000D03*
%TO.P,SW38,3*%
%TO.N,N/C*%
X-6910000Y-36100000D03*
%TD*%
D10*
%TO.P,D25,1,K*%
%TO.N,row2*%
X53150000Y-46280000D03*
D11*
X55185000Y-46280000D03*
%TO.P,D25,2,A*%
%TO.N,Net-(D25-A)*%
X58735000Y-46280000D03*
D12*
X60770000Y-46280000D03*
%TD*%
D10*
%TO.P,D3,1,K*%
%TO.N,row0*%
X38800000Y-8240000D03*
D11*
X40835000Y-8240000D03*
%TO.P,D3,2,A*%
%TO.N,Net-(D3-A)*%
X44385000Y-8240000D03*
D12*
X46420000Y-8240000D03*
%TD*%
D10*
%TO.P,D10,1,K*%
%TO.N,row0*%
X172110000Y-8140000D03*
D11*
X174145000Y-8140000D03*
%TO.P,D10,2,A*%
%TO.N,Net-(D10-A)*%
X177695000Y-8140000D03*
D12*
X179730000Y-8140000D03*
%TD*%
D16*
%TO.P,U1,1,PIN1(D3)*%
%TO.N,col0*%
X-4420000Y-11088600D03*
%TO.P,U1,2,PIN2(D2)*%
%TO.N,col1*%
X-1880000Y-11088600D03*
%TO.P,U1,3,GND*%
%TO.N,GND*%
X660000Y-11088600D03*
%TO.P,U1,4,GND*%
X3200000Y-11088600D03*
%TO.P,U1,5,PIN5(D1)*%
%TO.N,row0*%
X5740000Y-11088600D03*
%TO.P,U1,6,PIN6(D0)*%
%TO.N,col7*%
X8280000Y-11088600D03*
%TO.P,U1,7,PIN7(D4)*%
%TO.N,col5*%
X10820000Y-11088600D03*
%TO.P,U1,8,PIN8(C6)*%
%TO.N,col6*%
X13360000Y-11088600D03*
%TO.P,U1,9,PIN9(D7)*%
%TO.N,col2*%
X15900000Y-11088600D03*
%TO.P,U1,10,PIN10(E6)*%
%TO.N,col3*%
X18440000Y-11088600D03*
%TO.P,U1,11,PIN11(B4)*%
%TO.N,col4*%
X20980000Y-11088600D03*
%TO.P,U1,12,PIN12(B5)*%
%TO.N,unconnected-(U1-PIN12(B5)-Pad12)*%
X23520000Y-11088600D03*
%TO.P,U1,13,PIN13(B6)*%
%TO.N,unconnected-(U1-PIN13(B6)-Pad13)*%
X23520000Y-26308600D03*
%TO.P,U1,14,PIN14(B2)*%
%TO.N,unconnected-(U1-PIN14(B2)-Pad14)*%
X20980000Y-26308600D03*
%TO.P,U1,15,PIN15(B3)*%
%TO.N,col10*%
X18440000Y-26308600D03*
%TO.P,U1,16,PIN16(B1)*%
%TO.N,col9*%
X15900000Y-26308600D03*
%TO.P,U1,17,PIN17(F7)*%
%TO.N,col8*%
X13360000Y-26308600D03*
%TO.P,U1,18,PIN18(F6)*%
%TO.N,row1*%
X10820000Y-26308600D03*
%TO.P,U1,19,PIN19(F5)*%
%TO.N,row2*%
X8280000Y-26308600D03*
%TO.P,U1,20,PIN20(F4)*%
%TO.N,row3*%
X5740000Y-26308600D03*
%TO.P,U1,21,+4.3V*%
%TO.N,unconnected-(U1-+4.3V-Pad21)*%
X3200000Y-26308600D03*
%TO.P,U1,22,BOOT(RST)*%
%TO.N,Net-(U1-BOOT(RST))*%
X660000Y-26308600D03*
%TO.P,U1,23,GND*%
%TO.N,GND*%
X-1880000Y-26308600D03*
%TO.P,U1,24,+5V*%
%TO.N,VCC*%
X-4420000Y-26308600D03*
D17*
%TO.P,U1,25,BAT*%
%TO.N,Net-(U1-BAT)*%
X-6960000Y-26308600D03*
D16*
%TO.P,U1,26*%
%TO.N,N/C*%
X-6960000Y-11088600D03*
%TD*%
D10*
%TO.P,D35,1,K*%
%TO.N,row3*%
X98460000Y-65360000D03*
D11*
X100495000Y-65360000D03*
%TO.P,D35,2,A*%
%TO.N,Net-(D35-A)*%
X104045000Y-65360000D03*
D12*
X106080000Y-65360000D03*
%TD*%
D10*
%TO.P,D5,1,K*%
%TO.N,row0*%
X76910000Y-8360000D03*
D11*
X78945000Y-8360000D03*
%TO.P,D5,2,A*%
%TO.N,Net-(D5-A)*%
X82495000Y-8360000D03*
D12*
X84530000Y-8360000D03*
%TD*%
D10*
%TO.P,D30,1,K*%
%TO.N,row2*%
X148120000Y-46370000D03*
D11*
X150155000Y-46370000D03*
%TO.P,D30,2,A*%
%TO.N,Net-(D30-A)*%
X153705000Y-46370000D03*
D12*
X155740000Y-46370000D03*
%TD*%
D10*
%TO.P,D1,1,K*%
%TO.N,row0*%
X920000Y-8330000D03*
D11*
X2955000Y-8330000D03*
%TO.P,D1,2,A*%
%TO.N,Net-(D1-A)*%
X6505000Y-8330000D03*
D12*
X8540000Y-8330000D03*
%TD*%
D10*
%TO.P,D19,1,K*%
%TO.N,row1*%
X138615000Y-27260000D03*
D11*
X140650000Y-27260000D03*
%TO.P,D19,2,A*%
%TO.N,Net-(D19-A)*%
X144200000Y-27260000D03*
D12*
X146235000Y-27260000D03*
%TD*%
D10*
%TO.P,D18,1,K*%
%TO.N,row1*%
X119835000Y-27350000D03*
D11*
X121870000Y-27350000D03*
%TO.P,D18,2,A*%
%TO.N,Net-(D18-A)*%
X125420000Y-27350000D03*
D12*
X127455000Y-27350000D03*
%TD*%
D10*
%TO.P,D14,1,K*%
%TO.N,row1*%
X43635000Y-27340000D03*
D11*
X45670000Y-27340000D03*
%TO.P,D14,2,A*%
%TO.N,Net-(D14-A)*%
X49220000Y-27340000D03*
D12*
X51255000Y-27340000D03*
%TD*%
D10*
%TO.P,D13,1,K*%
%TO.N,row1*%
X24880000Y-29880000D03*
D11*
X26915000Y-29880000D03*
%TO.P,D13,2,A*%
%TO.N,Net-(D13-A)*%
X30465000Y-29880000D03*
D12*
X32500000Y-29880000D03*
%TD*%
D10*
%TO.P,D37,1,K*%
%TO.N,row3*%
X193555000Y-65370000D03*
D11*
X195590000Y-65370000D03*
%TO.P,D37,2,A*%
%TO.N,Net-(D37-A)*%
X199140000Y-65370000D03*
D12*
X201175000Y-65370000D03*
%TD*%
D10*
%TO.P,D9,1,K*%
%TO.N,row0*%
X149420000Y-8350000D03*
D11*
X151455000Y-8350000D03*
%TO.P,D9,2,A*%
%TO.N,Net-(D9-A)*%
X155005000Y-8350000D03*
D12*
X157040000Y-8350000D03*
%TD*%
D10*
%TO.P,D4,1,K*%
%TO.N,row0*%
X58040000Y-8310000D03*
D11*
X60075000Y-8310000D03*
%TO.P,D4,2,A*%
%TO.N,Net-(D4-A)*%
X63625000Y-8310000D03*
D12*
X65660000Y-8310000D03*
%TD*%
D10*
%TO.P,D33,1,K*%
%TO.N,row3*%
X2925000Y-65430000D03*
D11*
X4960000Y-65430000D03*
%TO.P,D33,2,A*%
%TO.N,Net-(D33-A)*%
X8510000Y-65430000D03*
D12*
X10545000Y-65430000D03*
%TD*%
D10*
%TO.P,D11,1,K*%
%TO.N,row0*%
X193420000Y-8340000D03*
D11*
X195455000Y-8340000D03*
%TO.P,D11,2,A*%
%TO.N,Net-(D11-A)*%
X199005000Y-8340000D03*
D12*
X201040000Y-8340000D03*
%TD*%
D10*
%TO.P,D17,1,K*%
%TO.N,row1*%
X100705000Y-27320000D03*
D11*
X102740000Y-27320000D03*
%TO.P,D17,2,A*%
%TO.N,Net-(D17-A)*%
X106290000Y-27320000D03*
D12*
X108325000Y-27320000D03*
%TD*%
D10*
%TO.P,D27,1,K*%
%TO.N,row2*%
X91155000Y-46470000D03*
D11*
X93190000Y-46470000D03*
%TO.P,D27,2,A*%
%TO.N,Net-(D27-A)*%
X96740000Y-46470000D03*
D12*
X98775000Y-46470000D03*
%TD*%
D10*
%TO.P,D16,1,K*%
%TO.N,row1*%
X81615000Y-27190000D03*
D11*
X83650000Y-27190000D03*
%TO.P,D16,2,A*%
%TO.N,Net-(D16-A)*%
X87200000Y-27190000D03*
D12*
X89235000Y-27190000D03*
%TD*%
D10*
%TO.P,D21,1,K*%
%TO.N,row1*%
X177195000Y-27280000D03*
D11*
X179230000Y-27280000D03*
%TO.P,D21,2,A*%
%TO.N,Net-(D21-A)*%
X182780000Y-27280000D03*
D12*
X184815000Y-27280000D03*
%TD*%
D10*
%TO.P,D28,1,K*%
%TO.N,row2*%
X110185000Y-46360000D03*
D11*
X112220000Y-46360000D03*
%TO.P,D28,2,A*%
%TO.N,Net-(D28-A)*%
X115770000Y-46360000D03*
D12*
X117805000Y-46360000D03*
%TD*%
D18*
%TO.N,BAT+*%
X16540000Y-59680000D03*
X1090000Y-61430000D03*
%TO.N,GND*%
X14390000Y-27750000D03*
X69740000Y-40570000D03*
%TO.N,col2*%
X26550000Y-2300000D03*
X31015000Y-2311620D03*
%TO.N,col3*%
X26550000Y-3700000D03*
X50065000Y-3640000D03*
%TO.N,col4*%
X69115000Y-4860000D03*
X31080000Y-4870000D03*
%TO.N,col5*%
X18967034Y-22182966D03*
X92927500Y-22170000D03*
%TO.N,col6*%
X107215000Y-5610000D03*
X19050000Y-5580000D03*
%TO.N,col7*%
X131027500Y-23510000D03*
X19000000Y-23520000D03*
%TO.N,col8*%
X150077500Y-24560000D03*
X18980000Y-24590000D03*
%TO.N,col9*%
X183415000Y-43380000D03*
X23850000Y-43390000D03*
%TO.N,col10*%
X188080000Y-25390000D03*
%TO.N,Net-(U1-BOOT(RST))*%
X20210000Y-27800000D03*
X10630000Y-23410000D03*
%TD*%
D19*
%TO.N,BAT+*%
X52680000Y-57260000D02*
X50240000Y-59700000D01*
X16540000Y-59680000D02*
X2840000Y-59680000D01*
X16560000Y-59700000D02*
X16540000Y-59680000D01*
X69580000Y-57260000D02*
X52680000Y-57260000D01*
X2840000Y-59680000D02*
X1090000Y-61430000D01*
X50240000Y-59700000D02*
X16560000Y-59700000D01*
%TO.N,GND*%
X20220000Y-36450000D02*
X24420000Y-40650000D01*
X24970000Y-40650000D02*
X69660000Y-40650000D01*
X14572000Y-27568000D02*
X14572000Y-25762000D01*
X660000Y-11088600D02*
X660000Y-13722505D01*
X4931250Y-20106245D02*
X-1271105Y-26308600D01*
X14390000Y-27750000D02*
X14572000Y-27568000D01*
X9921605Y-25096600D02*
X4931250Y-20106245D01*
X13906600Y-25096600D02*
X9921605Y-25096600D01*
X4931250Y-17993755D02*
X4931250Y-20106245D01*
X69660000Y-40650000D02*
X69740000Y-40570000D01*
X14572000Y-25762000D02*
X13906600Y-25096600D01*
X660000Y-13722505D02*
X4931250Y-17993755D01*
X24420000Y-40650000D02*
X24970000Y-40650000D01*
X-1271105Y-26308600D02*
X-1880000Y-26308600D01*
D20*
%TO.N,row0*%
X193420000Y-8340000D02*
X191830000Y-9930000D01*
X76910000Y-8360000D02*
X78680000Y-10130000D01*
X78945000Y-8360000D02*
X76910000Y-8360000D01*
X97945000Y-8330000D02*
X95910000Y-8330000D01*
X920000Y-8330000D02*
X2981400Y-8330000D01*
X40835000Y-8240000D02*
X38800000Y-8240000D01*
X116960000Y-10120000D02*
X132010000Y-10120000D01*
X2710000Y-6540000D02*
X18055000Y-6540000D01*
X75220000Y-10050000D02*
X76910000Y-8360000D01*
X78680000Y-10130000D02*
X94110000Y-10130000D01*
X920000Y-8330000D02*
X2710000Y-6540000D01*
X149420000Y-8350000D02*
X151455000Y-8350000D01*
X135880000Y-10150000D02*
X147620000Y-10150000D01*
X114920000Y-8080000D02*
X116960000Y-10120000D01*
X38800000Y-8240000D02*
X37407273Y-6847273D01*
X56130000Y-10220000D02*
X58040000Y-8310000D01*
X112820000Y-10180000D02*
X114920000Y-8080000D01*
X40780000Y-10220000D02*
X56130000Y-10220000D01*
X116955000Y-8080000D02*
X114920000Y-8080000D01*
X37407273Y-6847273D02*
X21327727Y-6847273D01*
X133930000Y-8200000D02*
X135880000Y-10150000D01*
X18055000Y-6540000D02*
X19845000Y-8330000D01*
X173900000Y-9930000D02*
X172110000Y-8140000D01*
X172110000Y-8140000D02*
X174145000Y-8140000D01*
X920000Y-8330000D02*
X2955000Y-8330000D01*
X59780000Y-10050000D02*
X75220000Y-10050000D01*
X147620000Y-10150000D02*
X149420000Y-8350000D01*
X38800000Y-8240000D02*
X40780000Y-10220000D01*
X97760000Y-10180000D02*
X112820000Y-10180000D01*
X60075000Y-8310000D02*
X58040000Y-8310000D01*
X150922727Y-6847273D02*
X149420000Y-8350000D01*
X170817273Y-6847273D02*
X150922727Y-6847273D01*
X132010000Y-10120000D02*
X133930000Y-8200000D01*
X135965000Y-8200000D02*
X133930000Y-8200000D01*
X193420000Y-8340000D02*
X195455000Y-8340000D01*
X95910000Y-8330000D02*
X97760000Y-10180000D01*
X58040000Y-8310000D02*
X59780000Y-10050000D01*
X19845000Y-8330000D02*
X21880000Y-8330000D01*
X2981400Y-8330000D02*
X5740000Y-11088600D01*
X94110000Y-10130000D02*
X95910000Y-8330000D01*
X21327727Y-6847273D02*
X19845000Y-8330000D01*
X191830000Y-9930000D02*
X173900000Y-9930000D01*
X172110000Y-8140000D02*
X170817273Y-6847273D01*
%TO.N,Net-(D1-A)*%
X8540000Y-8330000D02*
X6505000Y-8330000D01*
%TO.N,Net-(D2-A)*%
X27465000Y-8330000D02*
X25430000Y-8330000D01*
%TO.N,Net-(D3-A)*%
X46420000Y-8240000D02*
X44385000Y-8240000D01*
%TO.N,Net-(D4-A)*%
X65660000Y-8310000D02*
X63625000Y-8310000D01*
%TO.N,Net-(D5-A)*%
X84530000Y-8360000D02*
X82495000Y-8360000D01*
%TO.N,Net-(D6-A)*%
X103530000Y-8330000D02*
X101495000Y-8330000D01*
%TO.N,Net-(D7-A)*%
X122540000Y-8080000D02*
X120505000Y-8080000D01*
%TO.N,Net-(D8-A)*%
X141550000Y-8200000D02*
X139515000Y-8200000D01*
%TO.N,Net-(D9-A)*%
X157040000Y-8350000D02*
X155005000Y-8350000D01*
%TO.N,Net-(D10-A)*%
X179730000Y-8140000D02*
X177695000Y-8140000D01*
%TO.N,Net-(D11-A)*%
X201040000Y-8340000D02*
X199005000Y-8340000D01*
%TO.N,row1*%
X60465000Y-29290000D02*
X45585000Y-29290000D01*
X79495000Y-29310000D02*
X64405000Y-29310000D01*
X81615000Y-27190000D02*
X83650000Y-27190000D01*
X177195000Y-27280000D02*
X179230000Y-27280000D01*
X43635000Y-27340000D02*
X45670000Y-27340000D01*
X177195000Y-27280000D02*
X174945000Y-29530000D01*
X136365000Y-29510000D02*
X121995000Y-29510000D01*
X4785000Y-28625000D02*
X10840000Y-28625000D01*
X27420000Y-27340000D02*
X24880000Y-29880000D01*
X3660000Y-29750000D02*
X5695000Y-29750000D01*
X62425000Y-27330000D02*
X60465000Y-29290000D01*
X193885000Y-29530000D02*
X179445000Y-29530000D01*
X62425000Y-27330000D02*
X64460000Y-27330000D01*
X10820000Y-26308600D02*
X10820000Y-28605000D01*
X100705000Y-27320000D02*
X102740000Y-27320000D01*
X198040000Y-27410000D02*
X196005000Y-27410000D01*
X155575000Y-29470000D02*
X140825000Y-29470000D01*
X119835000Y-27350000D02*
X121870000Y-27350000D01*
X138615000Y-27260000D02*
X140650000Y-27260000D01*
X117675000Y-29510000D02*
X102895000Y-29510000D01*
X98575000Y-29450000D02*
X83875000Y-29450000D01*
X43635000Y-27340000D02*
X27420000Y-27340000D01*
X64405000Y-29310000D02*
X62425000Y-27330000D01*
X24880000Y-29880000D02*
X26915000Y-29880000D01*
X83875000Y-29450000D02*
X81615000Y-27190000D01*
X157755000Y-27290000D02*
X159790000Y-27290000D01*
X138615000Y-27260000D02*
X136365000Y-29510000D01*
X121995000Y-29510000D02*
X119835000Y-27350000D01*
X24880000Y-29880000D02*
X23625000Y-28625000D01*
X157755000Y-27290000D02*
X155575000Y-29470000D01*
X10820000Y-28605000D02*
X10840000Y-28625000D01*
X102895000Y-29510000D02*
X100705000Y-27320000D01*
X179445000Y-29530000D02*
X177195000Y-27280000D01*
X196005000Y-27410000D02*
X193885000Y-29530000D01*
X4785000Y-28625000D02*
X3660000Y-29750000D01*
X119835000Y-27350000D02*
X117675000Y-29510000D01*
X81615000Y-27190000D02*
X79495000Y-29310000D01*
X100705000Y-27320000D02*
X98575000Y-29450000D01*
X45585000Y-29290000D02*
X43635000Y-27340000D01*
X174945000Y-29530000D02*
X159995000Y-29530000D01*
X140825000Y-29470000D02*
X138615000Y-27260000D01*
X23625000Y-28625000D02*
X10840000Y-28625000D01*
X159995000Y-29530000D02*
X157755000Y-27290000D01*
%TO.N,Net-(D12-A)*%
X11280000Y-29750000D02*
X9245000Y-29750000D01*
%TO.N,Net-(D13-A)*%
X32500000Y-29880000D02*
X30465000Y-29880000D01*
%TO.N,Net-(D14-A)*%
X51255000Y-27340000D02*
X49220000Y-27340000D01*
%TO.N,Net-(D15-A)*%
X70045000Y-27330000D02*
X68010000Y-27330000D01*
%TO.N,Net-(D16-A)*%
X89235000Y-27190000D02*
X87200000Y-27190000D01*
%TO.N,Net-(D17-A)*%
X108325000Y-27320000D02*
X106290000Y-27320000D01*
%TO.N,Net-(D18-A)*%
X127455000Y-27350000D02*
X125420000Y-27350000D01*
%TO.N,Net-(D19-A)*%
X146235000Y-27260000D02*
X144200000Y-27260000D01*
%TO.N,Net-(D20-A)*%
X165375000Y-27290000D02*
X163340000Y-27290000D01*
%TO.N,Net-(D21-A)*%
X184815000Y-27280000D02*
X182780000Y-27280000D01*
%TO.N,Net-(D22-A)*%
X203625000Y-27410000D02*
X201590000Y-27410000D01*
%TO.N,row2*%
X72155000Y-46340000D02*
X74190000Y-46340000D01*
X129000000Y-46420000D02*
X131035000Y-46420000D01*
X25397273Y-48420000D02*
X28980000Y-44837273D01*
X191275000Y-46390000D02*
X193310000Y-46390000D01*
X108375000Y-44550000D02*
X93075000Y-44550000D01*
X130900000Y-44520000D02*
X129000000Y-46420000D01*
X72155000Y-46340000D02*
X70235000Y-44420000D01*
X150110000Y-44380000D02*
X148120000Y-46370000D01*
X168960000Y-44370000D02*
X189255000Y-44370000D01*
X37810000Y-46460000D02*
X39845000Y-46460000D01*
X53150000Y-46280000D02*
X55185000Y-46280000D01*
X70235000Y-44420000D02*
X55010000Y-44420000D01*
X167010000Y-46320000D02*
X169045000Y-46320000D01*
X91155000Y-46470000D02*
X89185000Y-44500000D01*
X39880000Y-44390000D02*
X37810000Y-46460000D01*
X167010000Y-46320000D02*
X168960000Y-44370000D01*
X93075000Y-44550000D02*
X91155000Y-46470000D01*
X9750000Y-48420000D02*
X25397273Y-48420000D01*
X28980000Y-44837273D02*
X36187273Y-44837273D01*
X51260000Y-44390000D02*
X39880000Y-44390000D01*
X110185000Y-46360000D02*
X108375000Y-44550000D01*
X148120000Y-46370000D02*
X146270000Y-44520000D01*
X73995000Y-44500000D02*
X72155000Y-46340000D01*
X36187273Y-44837273D02*
X37810000Y-46460000D01*
X55010000Y-44420000D02*
X53150000Y-46280000D01*
X53150000Y-46280000D02*
X51260000Y-44390000D01*
X7850000Y-46520000D02*
X9885000Y-46520000D01*
X91155000Y-46470000D02*
X93190000Y-46470000D01*
X89185000Y-44500000D02*
X73995000Y-44500000D01*
X146270000Y-44520000D02*
X130900000Y-44520000D01*
X127110000Y-44530000D02*
X112015000Y-44530000D01*
X129000000Y-46420000D02*
X127110000Y-44530000D01*
X165070000Y-44380000D02*
X150110000Y-44380000D01*
X112015000Y-44530000D02*
X110185000Y-46360000D01*
X189255000Y-44370000D02*
X191275000Y-46390000D01*
X7850000Y-46520000D02*
X9750000Y-48420000D01*
X148120000Y-46370000D02*
X150155000Y-46370000D01*
X110185000Y-46360000D02*
X112220000Y-46360000D01*
X167010000Y-46320000D02*
X165070000Y-44380000D01*
%TO.N,Net-(D23-A)*%
X15470000Y-46520000D02*
X13435000Y-46520000D01*
%TO.N,Net-(D24-A)*%
X45430000Y-46460000D02*
X43395000Y-46460000D01*
%TO.N,Net-(D25-A)*%
X60770000Y-46280000D02*
X58735000Y-46280000D01*
%TO.N,Net-(D26-A)*%
X79775000Y-46340000D02*
X77740000Y-46340000D01*
%TO.N,Net-(D27-A)*%
X98775000Y-46470000D02*
X96740000Y-46470000D01*
%TO.N,Net-(D28-A)*%
X117805000Y-46360000D02*
X115770000Y-46360000D01*
%TO.N,Net-(D29-A)*%
X136620000Y-46420000D02*
X134585000Y-46420000D01*
%TO.N,Net-(D30-A)*%
X155740000Y-46370000D02*
X153705000Y-46370000D01*
%TO.N,Net-(D31-A)*%
X174630000Y-46320000D02*
X172595000Y-46320000D01*
%TO.N,Net-(D32-A)*%
X198895000Y-46390000D02*
X196860000Y-46390000D01*
%TO.N,row3*%
X98460000Y-65360000D02*
X100495000Y-65360000D01*
X191565000Y-63380000D02*
X193555000Y-65370000D01*
X193555000Y-65370000D02*
X195590000Y-65370000D01*
X171780000Y-63380000D02*
X191565000Y-63380000D01*
X169740000Y-65420000D02*
X171780000Y-63380000D01*
X2925000Y-65430000D02*
X4960000Y-65430000D01*
X169740000Y-65420000D02*
X171775000Y-65420000D01*
X2925000Y-65430000D02*
X5075000Y-63280000D01*
X5075000Y-63280000D02*
X24935000Y-63280000D01*
X98460000Y-65360000D02*
X96392548Y-63292548D01*
X96392548Y-63292548D02*
X28702452Y-63292548D01*
X100547452Y-63272548D02*
X98460000Y-65360000D01*
X24935000Y-63280000D02*
X26825000Y-65170000D01*
X167592548Y-63272548D02*
X100547452Y-63272548D01*
X26825000Y-65170000D02*
X28860000Y-65170000D01*
X28702452Y-63292548D02*
X26825000Y-65170000D01*
X169740000Y-65420000D02*
X167592548Y-63272548D01*
%TO.N,Net-(D33-A)*%
X10545000Y-65430000D02*
X8510000Y-65430000D01*
%TO.N,Net-(D34-A)*%
X34445000Y-65170000D02*
X32410000Y-65170000D01*
%TO.N,Net-(D35-A)*%
X106080000Y-65360000D02*
X104045000Y-65360000D01*
%TO.N,Net-(D36-A)*%
X177360000Y-65420000D02*
X175325000Y-65420000D01*
%TO.N,Net-(D37-A)*%
X201175000Y-65370000D02*
X199140000Y-65370000D01*
%TO.N,col2*%
X26550000Y-2300000D02*
X31003380Y-2300000D01*
X31003380Y-2300000D02*
X31015000Y-2311620D01*
%TO.N,col3*%
X50005000Y-3700000D02*
X50065000Y-3640000D01*
X26550000Y-3700000D02*
X50005000Y-3700000D01*
%TO.N,col4*%
X69105000Y-4870000D02*
X69115000Y-4860000D01*
X31080000Y-4870000D02*
X69105000Y-4870000D01*
%TO.N,col5*%
X18967034Y-22182966D02*
X92914534Y-22182966D01*
X92914534Y-22182966D02*
X92927500Y-22170000D01*
%TO.N,col6*%
X19065000Y-5595000D02*
X107200000Y-5595000D01*
X107200000Y-5595000D02*
X107215000Y-5610000D01*
X19050000Y-5580000D02*
X19065000Y-5595000D01*
%TO.N,col7*%
X19000000Y-23520000D02*
X131017500Y-23520000D01*
X131017500Y-23520000D02*
X131027500Y-23510000D01*
%TO.N,col8*%
X150047500Y-24590000D02*
X150077500Y-24560000D01*
X18980000Y-24590000D02*
X150047500Y-24590000D01*
%TO.N,col9*%
X183405000Y-43390000D02*
X183415000Y-43380000D01*
X23850000Y-43390000D02*
X183405000Y-43390000D01*
%TO.N,col10*%
X149532195Y-25040000D02*
X149882195Y-25390000D01*
X149882195Y-25390000D02*
X188080000Y-25390000D01*
X18440000Y-26308600D02*
X19708600Y-25040000D01*
X19708600Y-25040000D02*
X149532195Y-25040000D01*
D19*
%TO.N,Net-(U1-BAT)*%
X-6910000Y-41100000D02*
X-7810000Y-40200000D01*
X-7810000Y-40200000D02*
X-7810000Y-27158600D01*
X-7810000Y-27158600D02*
X-6960000Y-26308600D01*
D20*
%TO.N,Net-(U1-BOOT(RST))*%
X17350000Y-24690000D02*
X17350000Y-26875000D01*
X18275000Y-27800000D02*
X20210000Y-27800000D01*
X10630000Y-23410000D02*
X16070000Y-23410000D01*
X17350000Y-26875000D02*
X18275000Y-27800000D01*
X16070000Y-23410000D02*
X17350000Y-24690000D01*
%TD*%
M02*
